<?xml version="1.0" standalone="no"?>
<!DOCTYPE svg PUBLIC "-//W3C//DTD SVG 20010904//EN"
 "http://www.w3.org/TR/2001/REC-SVG-20010904/DTD/svg10.dtd">
<svg version="1.0" xmlns="http://www.w3.org/2000/svg"
 width="1080.000000pt" height="1080.000000pt" viewBox="0 0 1080.000000 1080.000000"
 preserveAspectRatio="xMidYMid meet">
<metadata>
Created by potrace 1.11, written by Peter Selinger 2001-2013
</metadata>
<g transform="translate(0.000000,1080.000000) scale(0.100000,-0.100000)"
fill="#000000" stroke="none">
<path d="M446 10775 c3 -14 15 -42 25 -62 10 -21 19 -45 19 -55 0 -38 36 -18
74 42 21 33 50 69 65 80 l26 19 -108 1 -107 0 6 -25z"/>
<path d="M1164 10761 c1 -46 -8 -59 -27 -43 -18 15 -30 3 -16 -15 7 -7 12 -23
13 -36 1 -17 7 -21 25 -19 34 3 49 19 61 62 12 45 35 58 50 29 6 -11 12 -63
14 -117 2 -103 22 -175 50 -180 9 -2 16 -8 16 -13 0 -14 97 -11 121 4 17 10
23 10 26 0 3 -7 17 -13 33 -13 15 0 33 -7 40 -15 7 -8 18 -15 25 -15 15 0 25
-22 25 -54 0 -13 9 -31 20 -41 20 -18 21 -18 51 13 39 40 54 40 74 2 8 -16 24
-34 35 -40 11 -6 20 -17 20 -25 0 -27 61 -55 118 -55 132 0 47 -76 -198 -175
-36 -14 -79 -33 -97 -41 -17 -8 -36 -14 -42 -14 -26 0 -91 -53 -91 -74 0 -11
-10 -37 -22 -56 -12 -19 -22 -43 -23 -53 -3 -28 -22 -44 -37 -29 -23 23 -83
14 -144 -23 -32 -19 -68 -35 -79 -35 -29 0 -85 -29 -92 -47 -15 -40 -1 -128
23 -137 8 -3 14 -15 14 -27 0 -29 37 -79 60 -79 11 0 25 16 39 45 12 25 24 45
26 45 3 0 19 -10 35 -22 29 -21 30 -24 30 -109 0 -48 4 -90 9 -94 5 -3 30 0
55 7 34 9 51 9 70 0 34 -15 33 -32 -5 -68 -63 -60 -57 -104 16 -104 37 0 48 5
61 25 15 22 15 33 4 85 -7 32 -10 74 -6 93 4 19 4 52 0 74 l-6 38 -44 -4 c-59
-4 -91 5 -99 28 -9 29 11 67 55 107 23 21 45 52 51 74 12 39 40 59 70 53 23
-5 29 -34 16 -82 -13 -48 -7 -57 45 -66 33 -6 38 -5 43 17 3 13 2 42 -3 65 -8
34 -6 47 9 72 26 43 82 41 99 -4 8 -22 13 -23 87 -18 42 2 83 9 89 14 8 6 25
7 46 1 32 -8 33 -10 38 -71 3 -34 1 -70 -4 -78 -9 -16 -25 -73 -30 -103 -1 -9
-10 -27 -19 -40 -9 -14 -17 -34 -17 -45 0 -23 -35 -84 -59 -101 -8 -7 -32 -15
-52 -18 -40 -6 -54 -27 -39 -56 19 -36 41 -113 45 -158 4 -45 3 -46 -71 -119
-77 -75 -124 -97 -109 -50 17 54 2 82 -49 91 -19 4 -51 18 -71 31 -47 33 -58
25 -50 -34 8 -59 -8 -76 -60 -67 -38 7 -53 19 -96 74 -35 45 -90 63 -151 50
-65 -15 -94 4 -104 69 -11 82 -52 106 -100 58 -41 -41 -75 -18 -103 67 -13 38
-47 68 -79 68 -10 0 -27 9 -37 20 -36 40 -78 18 -65 -33 20 -79 20 -102 0
-134 -20 -33 -20 -33 -57 -19 -21 8 -49 17 -63 20 -29 6 -50 51 -50 106 0 18
-5 61 -12 96 -10 54 -9 66 5 88 36 55 15 59 -76 17 -40 -19 -88 -54 -135 -101
-65 -63 -73 -74 -67 -98 4 -15 11 -30 17 -33 5 -3 11 -21 13 -40 6 -47 21
-126 35 -176 11 -38 10 -46 -10 -78 -20 -33 -26 -36 -54 -30 -89 18 -94 18
-101 -4 -7 -23 -32 -51 -45 -51 -29 0 -40 108 -51 545 -9 345 -12 393 -28 414
-9 14 -23 27 -29 29 -9 3 -11 -370 -10 -1635 l3 -1638 34 -3 c36 -4 65 13 45
26 -27 17 -32 51 -27 170 7 153 18 175 95 192 149 32 463 79 538 80 47 0 114
2 150 5 107 8 149 10 288 7 132 -2 132 -2 164 -32 17 -16 32 -30 34 -30 2 0
20 12 41 26 l38 25 207 -3 c176 -3 210 -5 224 -19 20 -20 65 -11 98 20 20 19
32 20 171 16 83 -2 179 -7 215 -10 62 -6 68 -4 114 27 113 75 131 77 164 16
12 -24 22 -47 22 -52 0 -11 116 -169 146 -200 12 -11 27 -32 34 -46 7 -14 27
-42 44 -63 l31 -39 -33 -26 c-49 -41 -43 -56 18 -48 48 6 52 5 80 -26 17 -18
30 -41 30 -51 0 -9 8 -21 18 -24 9 -4 37 -21 61 -37 29 -20 46 -26 49 -18 9
29 29 7 44 -48 l16 -61 -36 -18 c-21 -11 -54 -33 -76 -50 -21 -17 -48 -31 -60
-31 -11 0 -35 -8 -52 -19 -41 -25 -211 -74 -225 -65 -8 4 -9 3 -5 -4 4 -7 -2
-16 -17 -21 -13 -5 -52 -36 -87 -69 -35 -34 -101 -82 -148 -109 -46 -26 -105
-63 -131 -82 -25 -19 -89 -61 -140 -94 -52 -32 -117 -79 -145 -103 -82 -74
-520 -374 -546 -374 -6 0 -10 6 -11 13 0 6 -5 0 -10 -15 -7 -17 -25 -33 -48
-44 -29 -12 -52 -38 -100 -110 -34 -51 -96 -138 -138 -191 -115 -147 -209
-292 -296 -455 l-78 -146 18 -37 c23 -48 161 -128 311 -180 226 -79 258 -102
324 -228 49 -94 46 -91 413 -342 10 -7 22 -6 36 3 11 7 24 11 27 7 4 -4 6 -54
4 -113 -1 -65 2 -101 7 -92 8 14 23 173 27 280 1 25 2 64 3 87 1 30 6 43 19
47 10 3 99 13 197 21 99 8 221 24 270 35 50 10 187 26 305 35 118 9 271 23
340 30 196 22 467 43 820 65 471 29 621 39 655 46 17 3 143 10 280 14 138 5
345 14 460 20 162 9 251 9 390 -1 121 -8 279 -10 480 -5 269 6 303 5 330 -10
40 -22 349 -44 367 -26 8 8 12 47 13 102 l0 89 35 15 c19 8 51 18 70 22 56 10
124 35 142 51 9 8 23 40 29 70 13 58 41 83 91 83 38 0 158 28 220 51 57 21 58
22 58 59 0 31 6 43 35 67 24 20 35 37 36 58 1 17 -21 98 -49 180 -27 83 -69
211 -92 285 -56 178 -187 442 -260 522 -44 49 -72 67 -203 132 -84 41 -199 94
-257 117 -58 23 -123 49 -145 59 -22 10 -69 30 -105 45 -36 14 -79 33 -97 41
-17 8 -34 14 -38 14 -3 0 -68 29 -143 63 -75 35 -173 79 -217 97 -44 19 -107
51 -139 72 -33 21 -64 38 -70 38 -6 0 -33 12 -61 25 -27 14 -57 25 -65 25 -8
0 -57 16 -109 35 -70 25 -101 42 -119 65 -13 17 -36 37 -51 44 -49 26 -172 37
-282 25 -56 -5 -103 -9 -105 -7 -1 2 -19 78 -39 168 -25 116 -34 175 -29 200
4 19 6 50 5 69 -2 26 0 33 12 28 15 -6 16 -4 37 97 8 39 7 53 -4 65 -8 9 -13
32 -12 51 1 29 6 35 23 35 34 1 38 13 14 39 -19 20 -20 25 -7 35 8 7 18 23 22
34 3 12 13 37 21 54 13 28 19 32 42 27 14 -4 49 -19 76 -35 28 -15 85 -39 129
-53 43 -14 104 -42 136 -61 32 -19 60 -35 64 -35 3 0 43 -25 87 -56 45 -31
107 -64 139 -75 31 -10 95 -36 141 -57 145 -67 179 -75 328 -77 75 -1 192 -7
261 -14 89 -8 137 -9 167 -1 23 5 120 12 215 15 95 4 174 7 176 9 1 2 20 -1
40 -6 20 -6 161 -12 312 -14 151 -1 374 -7 495 -13 190 -9 227 -8 274 5 31 9
69 13 87 9 49 -9 115 -78 148 -156 23 -55 32 -67 59 -75 32 -9 42 -28 62 -117
7 -34 51 -78 73 -75 9 2 18 -7 22 -21 6 -27 35 -50 47 -38 4 4 2 25 -3 47 -6
21 -7 45 -3 52 5 7 9 31 9 53 0 22 7 62 15 90 9 27 16 77 16 112 1 34 6 69 13
77 7 9 34 17 71 20 33 2 80 9 105 15 132 30 238 50 260 50 14 0 93 3 176 7
134 6 158 4 200 -12 42 -16 74 -19 216 -17 150 2 170 4 210 24 49 25 65 28
165 30 48 1 77 6 84 15 6 8 10 14 8 15 -24 3 -179 9 -228 9 -115 -1 -139 16
-185 130 -30 73 -31 89 -12 116 12 16 27 19 93 20 43 0 116 4 163 8 113 9 421
-15 447 -36 18 -15 68 -122 65 -140 -2 -10 2 -18 7 -18 6 0 10 3 9 8 -3 13 33
124 48 148 14 20 79 54 104 54 15 0 37 -51 45 -103 4 -26 8 -109 9 -185 1 -75
5 -143 9 -149 5 -7 17 -13 28 -13 19 0 19 27 19 1939 l0 1939 -36 21 c-27 16
-52 21 -105 21 -44 0 -68 -4 -64 -10 3 -5 14 -10 24 -10 11 0 21 -10 25 -22 9
-34 7 -50 -4 -43 -5 3 -12 -6 -16 -20 -14 -55 -53 -22 -80 70 -9 30 -10 30
-87 33 -70 3 -80 1 -96 -19 -14 -18 -24 -21 -53 -15 -20 4 -41 13 -48 21 -18
22 -35 18 -48 -10 -6 -14 -17 -25 -24 -25 -7 0 -31 -20 -53 -45 -22 -25 -48
-45 -57 -45 -23 0 -25 -7 -33 -94 -8 -80 -34 -116 -84 -116 -46 0 -65 37 -64
119 3 147 4 167 9 184 5 17 44 25 44 8 0 -5 19 -18 43 -30 l42 -21 15 22 c8
12 23 29 33 37 9 9 17 19 17 23 0 5 -304 8 -675 8 -657 0 -677 -1 -715 -20
-22 -11 -63 -26 -92 -34 -29 -8 -64 -19 -78 -24 -14 -6 -51 -18 -83 -28 -33
-10 -61 -24 -64 -31 -8 -20 -77 -53 -112 -53 -16 0 -37 7 -45 16 -14 14 -14
18 -1 44 18 35 40 48 90 53 22 2 48 14 62 27 54 52 89 50 -807 50 -789 0 -830
-1 -830 -18 0 -33 29 -62 63 -62 43 0 73 -22 80 -59 4 -16 20 -45 37 -64 25
-29 29 -41 24 -64 -4 -15 -13 -32 -19 -38 -21 -17 -26 -45 -10 -51 8 -4 15
-14 15 -24 0 -30 11 -50 29 -50 24 0 43 -37 36 -69 -3 -15 -24 -47 -45 -71
-22 -25 -40 -49 -40 -56 0 -24 41 -62 85 -78 25 -10 45 -21 45 -24 -1 -14 -36
-48 -93 -90 -31 -24 -80 -72 -108 -107 -31 -40 -72 -78 -109 -100 -32 -19 -65
-46 -74 -60 -9 -14 -55 -64 -101 -110 -78 -79 -85 -89 -96 -144 -10 -46 -10
-66 -1 -86 7 -14 12 -32 12 -39 0 -17 50 -76 65 -76 15 -1 60 -79 79 -138 10
-28 29 -68 43 -88 14 -21 29 -49 35 -63 12 -32 21 -97 12 -88 -4 3 -22 0 -41
-8 -52 -22 -105 -8 -115 30 -33 132 -41 168 -53 223 -8 35 -26 85 -41 110 -27
49 -33 67 -36 117 -1 17 -7 33 -13 37 -5 4 -44 8 -86 8 -76 0 -76 0 -71 25 2
14 20 39 40 55 19 15 44 44 56 63 11 19 47 65 78 102 60 71 64 95 19 95 -15 0
-31 3 -35 7 -16 16 -54 12 -71 -7 -25 -28 -79 -27 -99 2 -9 12 -16 27 -15 33
1 21 61 58 97 59 46 1 61 27 63 115 2 53 5 65 21 69 10 2 18 8 18 13 0 14 -16
10 -31 -7 -9 -10 -22 -14 -41 -10 -21 4 -31 0 -43 -16 -12 -19 -17 -20 -27 -9
-10 11 -10 12 0 7 8 -5 12 0 12 14 0 13 -4 19 -11 14 -7 -4 -7 1 1 16 6 12 9
28 6 35 -3 8 0 28 6 45 7 22 7 52 0 103 -10 62 -9 81 7 132 22 69 54 92 67 47
7 -28 14 -106 14 -155 0 -18 4 -26 10 -22 6 4 9 13 6 21 -3 8 -1 14 4 14 6 0
10 4 10 10 0 17 54 130 63 130 4 0 19 -12 32 -26 21 -23 25 -37 25 -90 0 -51
4 -68 20 -84 27 -27 32 -26 69 12 l31 32 43 -41 c36 -35 45 -39 65 -30 27 12
28 23 2 62 -13 20 -20 47 -20 78 0 43 4 53 33 80 19 18 46 40 60 50 15 10 27
22 27 26 0 10 -129 72 -190 91 -25 8 -63 29 -85 47 -22 19 -51 36 -65 39 -125
27 -187 62 -204 114 l-11 35 -1703 3 c-1691 2 -1704 2 -1729 -18 -33 -25 -49
-25 -56 0 -5 20 -14 20 -835 20 l-829 0 1 -39z m1660 -27 c18 -47 -12 -95 -50
-80 -21 8 -17 53 6 76 24 24 36 25 44 4z m6797 -108 c11 -14 28 -27 37 -31 11
-3 27 -30 41 -69 23 -66 64 -117 81 -100 5 5 12 25 15 44 16 90 85 67 85 -28
0 -31 -45 -82 -73 -82 -16 0 -18 -7 -17 -52 1 -29 1 -60 1 -69 -2 -29 -36 -27
-80 3 l-42 28 -67 -29 c-91 -40 -98 -53 -65 -119 22 -45 24 -57 15 -92 l-10
-40 48 -26 c61 -33 88 -91 61 -133 -12 -19 -58 -6 -72 22 -13 24 -96 133 -140
184 -15 18 -37 52 -47 75 -43 94 -119 172 -250 260 -40 27 -68 108 -37 108 8
0 15 -4 15 -10 0 -12 53 -40 77 -40 17 0 42 36 57 83 8 25 41 21 64 -7 14 -19
22 -22 30 -14 9 9 19 5 41 -16 24 -24 29 -25 35 -11 3 10 12 15 21 11 9 -3 15
1 15 10 0 11 5 14 16 10 9 -4 23 -1 30 5 11 9 18 8 29 -1 9 -7 18 -10 22 -7 3
4 16 -4 29 -18 31 -34 37 -18 19 51 -15 59 -20 124 -9 124 3 0 15 -11 25 -24z
m-6587 -67 c94 -14 126 -46 92 -92 -12 -16 -21 -17 -66 -9 -92 17 -178 -17
-165 -65 7 -29 -25 -47 -66 -38 -22 5 -29 3 -29 -9 0 -11 -10 -16 -33 -16 -18
0 -42 -7 -53 -15 -10 -8 -27 -15 -36 -15 -10 0 -18 -4 -18 -10 0 -5 -7 -10
-15 -10 -8 0 -29 -9 -47 -20 -18 -11 -39 -20 -47 -20 -7 0 -30 -13 -51 -30
-21 -16 -42 -30 -46 -30 -15 -1 -54 -37 -54 -50 0 -19 -40 -71 -93 -122 -83
-81 -104 -57 -37 42 22 32 56 76 75 97 19 21 35 42 35 46 0 31 41 83 103 130
40 30 108 87 152 127 44 40 106 85 139 101 52 25 66 27 130 22 39 -2 97 -9
130 -14z m5132 -33 c47 -46 135 -78 189 -71 36 5 84 7 107 6 24 -1 11 -31 -14
-31 -10 0 -17 -4 -14 -9 3 -5 -9 -10 -27 -10 -77 -3 -87 -6 -87 -23 0 -20 -15
-24 -26 -7 -13 21 -81 -73 -100 -138 -16 -57 -20 -62 -52 -68 -27 -5 -39 -2
-58 16 -13 12 -24 30 -24 39 0 37 -32 120 -50 130 -13 7 -34 7 -67 0 -26 -6
-57 -9 -69 -6 -20 5 -83 81 -96 116 -11 31 12 61 64 85 50 23 60 24 167 19
l113 -7 44 -41z m-2890 -128 c-20 -59 -38 -74 -50 -42 -9 22 21 74 43 74 17 0
17 -3 7 -32z m176 -268 c7 -30 18 -60 26 -66 8 -6 13 -19 11 -29 -3 -14 -19
-22 -62 -31 -32 -6 -66 -19 -77 -29 -17 -15 -26 -16 -77 -6 -32 7 -74 11 -94
11 -51 -1 -63 18 -54 85 5 41 12 58 27 66 17 9 24 8 33 -5 7 -9 18 -16 25 -16
7 0 18 -7 24 -15 9 -13 18 -10 58 22 25 21 61 61 80 90 43 67 62 72 65 18 2
-22 8 -65 15 -95z m229 100 c10 -6 19 -20 19 -31 0 -11 5 -17 10 -14 13 8 13
-1 -1 -27 -8 -16 -8 -19 1 -13 8 5 11 3 8 -6 -6 -17 -74 -15 -94 2 -21 17 -17
56 8 79 25 23 24 23 49 10z m2577 -227 c30 -33 21 -54 -28 -64 -62 -13 -79 15
-39 65 26 33 36 33 67 -1z m-201 -34 c-5 -18 -2 -20 19 -15 25 7 25 6 8 -19
-20 -30 -46 -46 -60 -37 -24 18 -5 92 24 92 10 0 13 -7 9 -21z m-1761 -35 c1
-16 0 -21 -3 -11 -2 9 -9 17 -14 17 -5 0 -9 7 -9 16 0 28 23 9 26 -22z m1483
-73 c13 -22 -10 -46 -51 -53 -47 -9 -54 7 -17 41 40 35 54 38 68 12z m403 5
c35 -15 65 -42 56 -51 -3 -3 -26 -9 -52 -14 -87 -16 -132 14 -85 58 27 25 36
26 81 7z m155 -32 c50 -10 78 -82 39 -97 -18 -7 -57 14 -70 38 -6 11 -17 24
-24 28 -10 7 -10 12 -1 23 13 16 15 16 56 8z m-752 -112 c3 -11 -1 -32 -10
-48 -8 -16 -15 -38 -15 -49 0 -11 -7 -31 -16 -43 -15 -22 -17 -23 -36 -6 -16
15 -18 26 -13 69 4 27 13 60 21 73 18 27 60 30 69 4z m-5515 -87 c0 -8 -2 -15
-4 -15 -2 0 -6 7 -10 15 -3 8 -1 15 4 15 6 0 10 -7 10 -15z m-690 -19 c0 -16
-18 -31 -27 -22 -8 8 5 36 17 36 5 0 10 -6 10 -14z m-90 -105 c0 -11 -4 -10
-19 3 -11 10 -24 15 -30 11 -6 -3 -9 0 -5 8 4 12 10 12 30 3 13 -6 24 -17 24
-25z m8570 -283 c12 -20 18 -44 15 -63 -2 -16 -4 -33 -4 -37 -1 -5 -8 -8 -16
-8 -8 0 -15 -5 -15 -12 0 -21 -12 0 -20 37 -6 28 -5 35 5 31 9 -3 11 2 8 15
-6 22 -19 25 -27 7 -3 -7 -3 -2 0 11 4 17 3 21 -6 16 -9 -6 -9 -3 -1 14 17 30
38 26 61 -11z m-4785 -18 c3 -5 2 -10 -4 -10 -5 0 -13 5 -16 10 -3 6 -2 10 4
10 5 0 13 -4 16 -10z m63 -44 l3 -27 -21 21 c-11 11 -18 25 -14 31 10 18 29 4
32 -25z m2 -85 c0 -29 -14 -49 -23 -34 -8 12 4 63 14 63 5 0 9 -13 9 -29z
m-2415 -6 c29 -30 31 -38 9 -59 -41 -42 -86 1 -56 53 9 17 18 31 19 31 1 0 14
-11 28 -25z m3655 0 c10 -12 10 -15 -4 -15 -9 0 -16 7 -16 15 0 8 2 15 4 15 2
0 9 -7 16 -15z m-5930 -43 c0 -24 22 -43 85 -75 34 -17 57 -37 70 -61 21 -39
76 -72 139 -81 41 -7 86 -44 86 -71 0 -10 -10 -28 -22 -41 -18 -20 -31 -23
-88 -23 -77 0 -104 -15 -105 -56 0 -28 -2 -29 -43 -27 -79 3 -182 75 -198 137
-7 30 19 82 46 91 25 8 25 16 0 57 -21 35 -27 108 -9 108 6 0 8 7 5 16 -6 17
9 44 25 44 5 0 9 -8 9 -18z m9809 -28 c-28 -29 -37 -30 -35 -4 1 24 23 40 43
33 11 -4 9 -11 -8 -29z m-3259 -4 c0 -5 -5 -10 -11 -10 -5 0 -7 5 -4 10 3 6 8
10 11 10 2 0 4 -4 4 -10z m-3066 -46 c9 -3 16 -12 16 -18 0 -7 11 -22 25 -34
14 -12 25 -27 25 -33 0 -6 15 -29 34 -50 22 -23 37 -53 41 -76 3 -21 10 -45
15 -54 6 -12 1 -28 -17 -54 -41 -61 -56 -75 -78 -75 -24 0 -91 -34 -120 -60
-13 -12 -41 -20 -77 -24 -32 -2 -62 -7 -68 -11 -6 -4 -24 -8 -39 -9 l-27 -2
18 37 c9 20 30 48 46 61 37 31 46 49 67 128 9 36 28 86 42 111 13 25 26 59 27
75 4 43 26 94 41 94 7 0 20 -3 29 -6z m-1299 -74 c3 -5 -1 -10 -9 -10 -9 0
-16 5 -16 10 0 6 4 10 9 10 6 0 13 -4 16 -10z m-1535 -15 c31 -37 -35 -109
-79 -86 -17 10 -31 32 -31 50 0 4 9 17 20 29 24 25 72 29 90 7z m4532 -17 c13
-21 9 -36 -14 -58 -31 -29 -98 -25 -98 6 0 8 -4 14 -10 14 -24 0 -6 23 32 40
44 19 76 19 90 -2z m-4382 -93 c48 -25 51 -77 8 -136 -37 -49 -94 -35 -137 35
-33 52 -28 74 22 96 51 24 69 24 107 5z m-1039 -25 c23 -13 25 -46 4 -66 -27
-27 -16 -44 53 -76 61 -30 67 -36 67 -63 0 -39 -39 -58 -117 -58 -68 0 -103
20 -125 71 -19 47 -5 117 33 168 27 35 51 42 85 24z m4781 -12 c-7 -7 -12 -8
-12 -2 0 14 12 26 19 19 2 -3 -1 -11 -7 -17z m-3362 1 c0 -6 6 -17 14 -25 22
-21 5 -65 -32 -87 -30 -18 -34 -18 -57 -3 -39 26 -34 69 12 101 40 27 63 32
63 14z m4250 -58 c0 -70 -18 -109 -54 -121 -35 -11 -56 -43 -56 -85 0 -31 -18
-74 -44 -102 -27 -32 -36 -29 -36 12 0 41 34 115 53 115 8 0 8 3 -2 9 -24 15
17 142 64 202 40 51 75 37 75 -30z m-798 37 c-7 -7 -12 -8 -12 -2 0 14 12 26
19 19 2 -3 -1 -11 -7 -17z m-1382 3 c0 -6 -4 -13 -10 -16 -5 -3 -10 1 -10 9 0
9 5 16 10 16 6 0 10 -4 10 -9z m3536 -116 c-7 -29 -26 -34 -26 -7 0 18 20 45
28 37 2 -2 2 -16 -2 -30z m2435 -20 c7 -65 1 -93 -23 -106 -31 -16 -43 4 -43
70 0 61 16 94 44 89 11 -2 18 -18 22 -53z m-7221 -47 c0 -7 -5 -20 -10 -28 -8
-12 -10 -9 -10 13 0 15 5 27 10 27 6 0 10 -6 10 -12z m16 -55 c-10 -10 -19 5
-10 18 6 11 8 11 12 0 2 -7 1 -15 -2 -18z m556 -41 l77 -16 7 -56 c3 -30 13
-77 21 -103 15 -46 15 -49 -6 -68 -11 -11 -21 -27 -21 -37 -1 -25 -39 27 -40
53 0 15 -2 17 -9 6 -7 -11 -13 -6 -26 20 -10 19 -18 35 -20 37 -1 1 -16 -5
-33 -14 -43 -21 -88 -26 -101 -10 -12 15 -11 66 1 66 4 0 8 11 8 25 0 14 5 25
10 25 16 0 12 30 -6 37 -8 3 -25 -4 -38 -16 -29 -28 -33 -27 -38 9 -4 25 -1
30 16 30 12 1 32 7 45 14 32 18 59 17 153 -2z m-1647 -142 c-10 -11 -20 -18
-23 -15 -7 6 18 35 31 35 5 0 2 -9 -8 -20z m1363 -12 c-3 -7 -11 -13 -18 -13
-7 0 -15 6 -17 13 -3 7 4 12 17 12 13 0 20 -5 18 -12z m108 -15 c-10 -10 -19
5 -10 18 6 11 8 11 12 0 2 -7 1 -15 -2 -18z m-1416 3 c0 -22 -80 -106 -101
-106 -43 0 -4 73 56 104 37 19 45 20 45 2z m2380 -34 c10 -7 -34 -32 -57 -32
-14 0 -23 -6 -23 -15 0 -8 5 -15 10 -15 6 0 10 -4 10 -10 0 -5 -9 -10 -20 -10
-10 0 -24 -9 -30 -20 -6 -11 -19 -20 -30 -20 -10 0 -35 -9 -54 -21 -20 -12
-36 -16 -36 -11 0 10 60 82 93 111 9 8 17 22 17 29 0 10 7 12 21 9 16 -4 18
-3 9 8 -21 26 -1 34 43 17 23 -9 44 -18 47 -20z m6224 19 c4 -5 2 -20 -3 -33
-11 -29 17 -108 30 -86 7 10 9 10 9 0 0 -7 -7 -15 -16 -19 -9 -3 -14 -13 -11
-24 3 -11 1 -19 -4 -19 -5 0 -9 -9 -9 -19 0 -11 -5 -23 -10 -26 -6 -4 -8 -11
-5 -16 4 -5 -5 -14 -19 -21 -14 -6 -26 -15 -26 -20 0 -13 27 -9 44 7 8 8 19
15 24 15 5 0 15 7 22 15 18 21 39 19 61 -7 47 -58 11 -142 -96 -225 -71 -55
-86 -76 -99 -133 -3 -14 -17 -38 -30 -54 -21 -24 -24 -35 -19 -71 7 -55 -7
-78 -63 -106 -34 -18 -49 -21 -62 -13 -22 14 -28 55 -10 68 19 14 38 50 38 70
0 27 -46 18 -79 -15 -41 -40 -77 -37 -108 10 -13 19 -39 45 -58 58 -40 27 -42
39 -16 71 32 38 62 26 76 -31 6 -23 12 -28 33 -25 44 5 52 35 20 81 -23 31 8
69 73 90 39 13 60 26 67 42 9 20 8 24 -13 29 -20 5 -24 14 -31 68 -4 35 -6 68
-5 73 2 6 4 20 5 33 1 19 5 22 24 17 15 -4 22 -1 22 9 0 8 9 18 20 21 16 5 19
12 14 32 -6 23 -5 25 16 20 14 -3 28 0 38 9 8 8 28 18 44 21 30 6 32 15 13 65
-3 8 9 19 32 30 45 19 60 21 67 9z m-7293 -14 c-1 -12 -15 -9 -19 4 -3 6 1 10
8 8 6 -3 11 -8 11 -12z m79 -27 c0 -16 -4 -30 -9 -30 -5 0 -8 12 -6 28 4 34 4
32 10 32 3 0 5 -13 5 -30z m150 -1 c7 -12 18 -18 26 -15 8 3 14 1 14 -4 0 -6
-4 -10 -10 -10 -5 0 -10 -7 -10 -15 0 -28 -18 -15 -25 18 -4 17 -13 35 -19 39
-8 6 -8 8 1 8 7 0 17 -9 23 -21z m1093 -124 c-7 -21 -13 -19 -13 6 0 11 4 18
10 14 5 -3 7 -12 3 -20z m5647 -10 c0 -8 -2 -15 -4 -15 -2 0 -6 7 -10 15 -3 8
-1 15 4 15 6 0 10 -7 10 -15z m-7460 -39 c0 -2 -7 -7 -16 -10 -8 -3 -12 -2 -9
4 6 10 25 14 25 6z m1420 -17 c0 -5 -4 -9 -10 -9 -5 0 -10 7 -10 16 0 8 5 12
10 9 6 -3 10 -10 10 -16z m573 -68 c8 -8 -85 -58 -118 -63 -14 -2 -19 2 -17
15 2 11 -3 17 -15 17 -25 0 -42 -13 -41 -30 1 -8 0 -24 -1 -35 -1 -17 -3 -18
-11 -5 -5 8 -7 23 -4 33 5 17 1 18 -58 13 -34 -3 -98 -8 -140 -12 -140 -11
-100 -35 57 -35 51 0 97 1 103 3 5 2 11 -1 12 -7 4 -22 -78 -34 -223 -33 -105
0 -147 4 -144 12 2 6 18 12 35 14 20 2 33 10 37 22 3 11 32 29 73 45 37 15 81
33 97 41 17 7 46 15 65 16 63 5 285 -3 293 -11z m-1943 -119 c10 -9 39 -23 64
-31 59 -17 64 -27 27 -48 -51 -30 -81 -88 -81 -158 0 -53 4 -65 31 -98 27 -33
36 -37 75 -37 32 0 44 4 44 15 0 21 40 41 50 25 6 -9 22 -11 54 -7 37 5 46 4
46 -8 0 -8 -3 -15 -7 -16 -5 0 -24 -3 -43 -5 -19 -3 -46 -6 -60 -7 -14 -1 -28
-10 -32 -19 -9 -21 -82 -25 -123 -6 -49 22 -95 132 -95 229 0 25 -5 71 -11
102 -6 31 -9 63 -6 71 8 21 43 20 67 -2z m1430 -42 c0 -5 -7 -10 -15 -10 -8 0
-15 5 -15 10 0 6 7 10 15 10 8 0 15 -4 15 -10z m-60 -15 c0 -8 6 -15 14 -15
16 0 28 -48 13 -57 -5 -3 -16 2 -24 12 -12 18 -13 18 -13 -2 0 -15 7 -23 22
-25 12 -2 24 -9 26 -17 4 -11 -1 -12 -19 -6 -13 4 -38 8 -55 8 -29 1 -31 3
-28 33 3 36 32 83 52 84 6 0 12 -7 12 -15z m-1175 -25 c3 -5 1 -10 -4 -10 -6
0 -11 5 -11 10 0 6 2 10 4 10 3 0 8 -4 11 -10z m35 -40 c0 -5 -9 -10 -20 -10
-11 0 -20 5 -20 10 0 6 9 10 20 10 11 0 20 -4 20 -10z m5635 -10 c10 -16 -17
-109 -33 -115 -38 -14 -57 59 -26 103 16 23 48 29 59 12z m-5595 -31 c11 -19
10 -20 -9 -10 -27 15 -36 31 -17 31 8 0 20 -9 26 -21z m1155 -29 c-3 -5 -11
-10 -16 -10 -6 0 -7 5 -4 10 3 6 11 10 16 10 6 0 7 -4 4 -10z m6706 -4 c24 -8
56 -17 70 -20 15 -3 46 -22 69 -41 23 -19 54 -38 69 -41 38 -8 81 -25 81 -33
0 -3 -5 -22 -10 -43 l-10 -36 -95 -7 c-138 -11 -315 2 -350 25 -15 10 -35 16
-44 12 -9 -3 5 20 32 50 26 32 50 71 53 90 4 18 11 39 17 46 13 16 63 15 118
-2z m-8213 -46 c13 -20 22 -48 22 -71 0 -50 12 -77 52 -120 53 -56 158 -80
189 -43 7 9 23 20 36 25 13 5 23 15 23 24 0 18 11 19 45 3 22 -10 32 -9 61 7
20 10 34 26 34 37 0 27 19 22 32 -8 12 -25 9 -29 -41 -76 -64 -58 -85 -68
-149 -67 -26 1 -60 -4 -76 -10 -56 -22 -148 27 -270 144 -68 66 -82 93 -31 59
31 -20 30 -24 10 44 -8 28 13 94 28 89 7 -2 22 -18 35 -37z m1685 -17 c-6 -14
-22 -17 -48 -7 -14 6 -12 10 11 25 29 19 48 10 37 -18z m37 27 c0 -5 -5 -10
-11 -10 -5 0 -7 5 -4 10 3 6 8 10 11 10 2 0 4 -4 4 -10z m100 -17 c-1 -21 -19
-35 -39 -28 -17 5 -20 3 -14 -12 3 -10 12 -22 20 -26 20 -12 16 -37 -7 -37
-13 0 -20 7 -20 20 0 28 -25 15 -40 -21 -17 -39 -54 -40 -68 -1 -6 15 -11 21
-11 14 -1 -9 -8 -11 -21 -7 -11 3 -20 2 -20 -3 0 -6 5 -12 12 -14 13 -5 2 -28
-13 -28 -6 0 -8 4 -5 9 4 5 -2 7 -11 5 -24 -5 -65 31 -61 53 2 11 12 18 26 18
12 0 26 6 31 14 6 10 21 11 59 6 32 -4 52 -3 57 4 3 6 17 11 29 11 13 0 29 7
36 15 13 15 60 21 60 8z m-1481 -37 c12 -14 -4 -26 -35 -26 -12 0 -12 4 -2 20
15 24 22 25 37 6z m-1159 -20 c0 -3 -4 -8 -10 -11 -5 -3 -10 -1 -10 4 0 6 5
11 10 11 6 0 10 -2 10 -4z m2310 -39 c0 -8 10 -18 22 -24 22 -9 21 -10 -10
-15 -31 -4 -33 -3 -28 18 4 13 1 24 -7 27 -7 3 -5 6 6 6 9 1 17 -5 17 -12z
m5397 -232 c13 -3 27 -20 34 -40 9 -23 23 -38 43 -47 32 -13 65 -45 66 -64 0
-6 -9 -23 -21 -38 -19 -24 -26 -26 -94 -26 -119 0 -138 17 -148 132 -4 44 -2
59 11 71 28 25 55 28 109 12z m-8109 -68 c5 -24 -15 -21 -21 4 -3 13 -1 19 6
16 7 -2 13 -11 15 -20z m2117 -1003 c-13 -32 -13 -39 4 -77 11 -23 22 -55 25
-72 28 -164 46 -228 65 -240 6 -3 11 -14 11 -24 0 -10 9 -26 20 -36 18 -17 20
-17 26 -1 10 26 23 0 17 -34 -2 -16 1 -31 7 -35 15 -9 12 -25 -5 -25 -18 0
-19 -2 -1 -45 8 -19 11 -35 5 -35 -5 0 -9 -9 -9 -20 0 -38 -82 65 -142 178
-85 162 -119 323 -85 405 13 30 63 97 73 97 2 0 -2 -16 -11 -36z m2599 -11 c8
-29 10 -123 3 -123 -4 0 -11 0 -16 0 -6 0 -10 22 -9 49 0 27 -3 59 -7 70 -4
15 -2 21 9 21 8 0 17 -8 20 -17z m101 -16 c17 -6 48 -19 71 -29 22 -10 46 -18
52 -18 7 0 29 -9 49 -20 21 -11 45 -20 55 -20 9 0 19 -4 22 -9 3 -5 30 -15 58
-22 29 -6 60 -16 68 -20 25 -14 132 -49 179 -60 24 -5 49 -13 55 -18 6 -4 33
-14 61 -20 27 -7 54 -16 60 -21 5 -4 26 -11 45 -15 19 -4 40 -11 45 -15 6 -4
57 -22 115 -40 58 -18 112 -36 120 -41 8 -5 26 -15 40 -22 14 -6 30 -16 35
-20 21 -18 212 -138 253 -159 l43 -23 -7 -50 c-7 -55 -13 -71 -23 -59 -25 35
-261 164 -436 239 -16 7 -47 20 -68 29 -21 9 -55 20 -75 25 -44 12 -241 81
-294 105 -21 9 -43 16 -51 16 -7 0 -17 4 -23 8 -5 5 -52 24 -104 42 -52 18
-100 37 -105 41 -10 7 -87 28 -200 54 -86 20 -105 26 -100 35 3 4 24 4 47 -2
32 -7 45 -6 53 4 5 7 22 19 38 27 39 21 19 34 -53 35 -33 0 -60 5 -60 9 0 5
-7 15 -15 23 -21 21 -19 38 3 29 9 -4 31 -12 47 -18z m-2956 -260 c15 -78 15
-79 -67 -139 -75 -55 -103 -63 -166 -48 -67 16 -91 5 -117 -56 -26 -57 -52
-74 -115 -74 -55 0 -92 -21 -139 -80 -80 -99 -122 -134 -220 -180 -55 -26
-140 -70 -188 -98 -49 -27 -134 -69 -190 -93 -56 -23 -121 -58 -145 -77 -24
-19 -45 -33 -46 -31 -2 2 -20 31 -41 63 -27 42 -35 64 -29 74 6 8 55 38 109
66 55 29 132 70 171 93 39 23 138 74 220 113 82 40 167 80 189 91 22 10 63 40
90 65 110 101 211 163 267 164 35 0 80 39 103 89 20 46 41 56 105 52 34 -2 52
3 73 19 40 32 111 69 118 61 3 -3 11 -36 18 -74z m2851 24 c0 -6 -4 -12 -9
-15 -5 -4 -17 -31 -26 -61 -11 -34 -23 -55 -32 -55 -17 0 -12 34 13 84 8 16
14 35 14 43 0 7 9 13 20 13 11 0 20 -4 20 -9z m112 -15 c24 -8 72 -20 107 -25
75 -12 160 -38 181 -56 17 -15 123 -65 136 -65 5 0 43 -14 84 -31 41 -17 91
-36 110 -43 19 -8 71 -28 115 -46 44 -17 105 -41 135 -52 30 -12 69 -27 87
-34 17 -8 34 -14 38 -14 4 0 26 -9 49 -19 23 -10 81 -37 129 -60 49 -23 93
-41 98 -41 16 0 119 -70 119 -81 0 -16 -31 -121 -41 -141 -8 -15 -14 -13 -61
12 -29 16 -71 33 -93 39 -22 5 -71 22 -110 36 -38 14 -92 34 -120 44 -27 10
-102 38 -165 61 -63 23 -128 46 -145 50 -102 28 -157 56 -231 117 -101 83
-149 105 -329 150 -115 28 -225 70 -225 84 0 5 9 13 20 19 16 8 20 21 20 60 0
46 2 50 25 50 13 0 44 -7 67 -14z m-2880 -274 c34 -71 36 -78 20 -90 -146
-111 -168 -122 -240 -122 -34 0 -78 -6 -96 -14 -19 -8 -67 -19 -107 -26 -89
-13 -115 -29 -135 -78 -16 -41 -63 -76 -88 -66 -9 3 -16 10 -16 15 0 5 -4 9
-10 9 -5 0 -10 -7 -10 -15 0 -8 -19 -27 -42 -43 -57 -39 -72 -58 -93 -115 -10
-26 -34 -66 -54 -87 -42 -46 -193 -131 -296 -166 -38 -14 -86 -38 -107 -54
-20 -17 -39 -30 -41 -30 -11 0 -78 152 -73 168 11 34 60 69 136 96 41 14 105
46 141 69 37 23 97 60 134 82 154 92 189 120 222 176 65 111 89 129 188 138
l60 6 27 58 c27 57 37 63 88 59 86 -8 159 -3 187 12 34 17 95 56 128 81 10 8
24 15 30 15 5 0 27 -35 47 -78z m490 -250 c7 -11 31 -22 53 -25 22 -4 63 -12
90 -18 28 -6 68 -12 90 -14 22 -1 53 -7 68 -14 16 -6 34 -11 40 -12 9 0 8 -2
-1 -6 -17 -7 -5 -23 18 -23 26 0 88 -29 124 -58 21 -17 36 -22 54 -17 20 5 23
3 18 -10 -3 -9 0 -18 9 -21 12 -5 11 -11 -2 -40 -9 -19 -21 -34 -27 -35 -90
-9 -284 62 -400 145 -57 41 -176 150 -176 161 0 13 30 3 42 -13z m939 -262
c11 0 19 -4 19 -9 0 -7 -117 -31 -156 -31 -16 0 -12 14 4 15 21 2 52 18 52 27
0 6 12 8 31 4 17 -3 40 -6 50 -6z m1247 -562 c2 -11 -3 -18 -12 -18 -12 0 -16
-17 -18 -92 -3 -79 -6 -93 -20 -96 -16 -3 -18 6 -18 88 0 83 -2 92 -20 97 -27
7 -25 31 3 36 45 9 82 3 85 -15z m-194 -10 c19 -27 0 -45 -25 -22 -8 8 -19 11
-22 7 -14 -13 -6 -35 23 -66 17 -18 33 -40 36 -51 8 -24 -14 -64 -38 -72 -25
-8 -68 21 -68 46 0 23 25 27 34 5 7 -19 25 -19 32 0 4 9 -8 31 -30 55 -37 41
-44 67 -26 101 15 27 64 25 84 -3z m328 -38 c10 -86 9 -158 -2 -165 -6 -3 -14
4 -18 16 -7 19 -10 20 -15 6 -4 -10 -12 -17 -18 -17 -8 0 -9 17 -5 55 3 30 9
80 12 110 5 44 10 55 23 53 11 -2 18 -19 23 -58z m104 40 c17 0 24 -6 24 -20
0 -11 -4 -20 -9 -20 -5 0 -13 -39 -17 -87 -7 -67 -13 -88 -24 -88 -12 0 -14
17 -11 93 2 78 0 92 -13 92 -9 0 -16 6 -16 13 0 19 12 29 28 22 7 -3 25 -5 38
-5z m180 -24 c21 -16 22 -14 -31 -31 -21 -6 -19 -32 5 -45 11 -6 20 -17 20
-24 0 -8 -9 -16 -20 -19 -30 -8 -26 -45 6 -57 22 -9 31 -33 11 -31 -4 1 -20 1
-37 1 l-30 0 0 110 0 110 28 0 c16 0 37 -6 48 -14z"/>
<path d="M3851 8654 c0 -11 3 -14 6 -6 3 7 2 16 -1 19 -3 4 -6 -2 -5 -13z"/>
<path d="M2952 8356 c2 -15 8 -26 13 -26 15 0 12 43 -3 48 -10 3 -13 -4 -10
-22z"/>
<path d="M3024 8373 c-26 -5 -39 -42 -18 -50 24 -9 44 5 44 32 0 14 -1 24 -2
24 -2 -1 -13 -4 -24 -6z"/>
<path d="M3890 7470 c0 -5 5 -10 10 -10 6 0 10 5 10 10 0 6 -4 10 -10 10 -5 0
-10 -4 -10 -10z"/>
<path d="M3145 5830 c-3 -5 -2 -10 4 -10 5 0 12 -10 14 -22 4 -20 4 -20 6 4 1
28 -13 45 -24 28z"/>
<path d="M6050 6006 c0 -9 7 -16 16 -16 9 0 14 5 12 12 -6 18 -28 21 -28 4z"/>
<path d="M6110 5986 c0 -2 7 -7 16 -10 8 -3 12 -2 9 4 -6 10 -25 14 -25 6z"/>
<path d="M6280 5936 c6 -8 18 -12 26 -9 23 9 16 23 -12 23 -22 0 -24 -2 -14
-14z"/>
<path d="M6365 5930 c-3 -5 -15 -10 -26 -10 -13 0 -19 -6 -18 -22 1 -17 2 -19
6 -5 5 19 18 22 28 7 9 -15 32 -12 38 4 7 18 -18 42 -28 26z"/>
<path d="M6520 5859 c0 -5 5 -7 10 -4 6 3 10 8 10 11 0 2 -4 4 -10 4 -5 0 -10
-5 -10 -11z"/>
<path d="M6600 5820 c19 -13 30 -13 30 0 0 6 -10 10 -22 10 -19 0 -20 -2 -8
-10z"/>
<path d="M6637 5811 c-4 -17 0 -21 19 -21 13 0 24 -5 24 -11 0 -6 9 -9 20 -6
10 3 21 0 23 -6 2 -6 9 -7 16 -3 17 11 -29 52 -67 61 -24 5 -30 2 -35 -14z"/>
<path d="M6780 5760 c-9 -6 -10 -10 -3 -10 6 0 15 5 18 10 8 12 4 12 -15 0z"/>
<path d="M6558 10788 c9 -9 15 -9 24 0 9 9 7 12 -12 12 -19 0 -21 -3 -12 -12z"/>
<path d="M6396 10195 c-9 -24 -7 -65 3 -65 12 0 23 62 12 73 -5 5 -11 1 -15
-8z"/>
<path d="M6558 9925 c-16 -14 -28 -37 -28 -50 0 -13 -6 -25 -12 -28 -8 -2 -9
-8 -4 -13 5 -5 11 -4 13 4 3 6 11 12 19 12 56 0 181 66 162 86 -4 3 -33 8 -65
11 -52 4 -61 2 -85 -22z"/>
<path d="M791 9556 c-12 -13 -25 -42 -28 -65 -3 -23 -9 -41 -14 -41 -5 0 -6
-6 -3 -14 9 -22 60 0 88 38 48 66 11 140 -43 82z"/>
<path d="M1044 9519 c-3 -6 -1 -16 5 -22 8 -8 11 -5 11 11 0 24 -5 28 -16 11z"/>
<path d="M1300 6734 c-11 -28 -5 -64 10 -64 15 0 42 47 38 67 -5 29 -37 28
-48 -3z"/>
<path d="M2357 6653 c-4 -3 -7 -15 -7 -25 0 -13 7 -18 25 -18 20 0 25 5 25 25
0 18 -5 25 -18 25 -10 0 -22 -3 -25 -7z"/>
<path d="M873 6628 c-16 -21 -23 -47 -13 -53 5 -3 6 -13 3 -21 -4 -12 -1 -15
13 -12 14 2 20 13 22 42 4 43 -9 65 -25 44z"/>
<path d="M1282 6567 c-27 -29 -28 -42 -1 -60 24 -18 56 -11 69 13 7 13 4 25
-11 44 -25 32 -30 32 -57 3z"/>
<path d="M2615 6455 c-24 -11 -26 -14 -9 -15 11 0 29 7 40 15 24 18 9 18 -31
0z"/>
<path d="M2465 6396 c-16 -8 -88 -42 -160 -76 -129 -62 -248 -118 -315 -147
-19 -8 -59 -26 -87 -40 -41 -19 -62 -23 -95 -18 -46 7 -60 -1 -104 -58 -11
-13 -35 -32 -53 -41 -18 -10 -31 -19 -29 -21 7 -7 120 35 192 71 39 19 114 51
166 71 142 53 540 251 540 269 0 8 -26 3 -55 -10z"/>
<path d="M8335 6240 c-3 -5 -8 -49 -10 -97 -5 -90 -19 -178 -34 -201 -4 -7
-30 -18 -57 -25 l-49 -12 1 -50 c1 -28 7 -81 13 -120 7 -38 12 -87 12 -107 0
-27 5 -38 15 -38 10 0 14 10 13 33 -1 17 2 39 5 48 4 10 3 20 -2 23 -9 6 -3
50 13 88 8 20 32 31 40 17 4 -5 6 -94 5 -197 -1 -103 -2 -243 -2 -312 1 -69
-6 -170 -14 -224 -8 -55 -14 -134 -14 -177 0 -45 -4 -79 -10 -81 -6 -2 -13
-30 -16 -63 -3 -33 -6 -69 -7 -79 -4 -38 52 -43 586 -50 285 -4 507 -4 507 1
0 5 -4 13 -9 19 -5 5 -21 32 -36 59 -15 28 -36 59 -46 71 -11 11 -19 23 -19
26 0 10 -103 183 -178 300 -42 65 -81 126 -87 135 -5 10 -18 24 -27 31 -10 7
-18 20 -18 28 0 8 -4 14 -10 14 -5 0 -10 6 -10 14 0 7 -6 19 -14 25 -8 7 -21
26 -30 44 -9 18 -26 48 -39 67 -12 20 -31 51 -42 69 -21 34 -67 105 -97 150
-10 14 -22 35 -28 46 -6 11 -19 34 -30 50 -11 17 -27 45 -37 63 -9 17 -20 32
-25 32 -4 0 -8 7 -8 15 0 8 -5 15 -11 15 -5 0 -7 5 -3 11 3 6 2 14 -3 18 -5 3
-38 56 -71 117 -50 89 -61 117 -56 140 8 43 -41 96 -61 64z"/>
<path d="M7897 6163 c-13 -12 -7 -51 9 -57 25 -9 83 -7 105 4 28 15 23 30 -8
30 -16 0 -41 7 -57 15 -32 17 -40 18 -49 8z"/>
<path d="M1585 5980 c-3 -5 -2 -10 4 -10 5 0 13 5 16 10 3 6 2 10 -4 10 -5 0
-13 -4 -16 -10z"/>
<path d="M1504 5945 c-10 -8 -14 -15 -8 -15 5 0 19 7 30 15 10 8 14 15 8 15
-5 0 -19 -7 -30 -15z"/>
<path d="M1013 5875 c-46 -32 -32 -115 20 -115 34 0 47 19 47 65 0 61 -25 79
-67 50z"/>
<path d="M8209 5553 c0 -10 -2 -27 -4 -38 -2 -11 -1 -42 4 -70 l8 -50 12 43
c14 52 11 124 -6 130 -7 2 -13 -5 -14 -15z"/>
<path d="M170 5460 c0 -5 7 -10 15 -10 8 0 15 5 15 10 0 6 -7 10 -15 10 -8 0
-15 -4 -15 -10z"/>
<path d="M301 5397 c-7 -19 -25 -55 -42 -82 -18 -29 -29 -58 -27 -74 3 -24 7
-26 47 -26 36 0 47 -5 64 -27 18 -23 21 -46 25 -180 2 -84 9 -159 14 -165 12
-15 57 -17 92 -3 23 8 26 15 26 61 0 51 -25 156 -41 174 -5 5 -9 15 -9 22 0 8
-20 57 -44 111 -24 53 -47 120 -51 147 -11 79 -36 98 -54 42z"/>
<path d="M7357 3908 c-3 -18 -8 -82 -12 -143 -3 -60 -8 -143 -11 -182 l-6 -73
26 0 c28 0 31 4 41 63 5 33 9 37 34 37 24 0 30 -5 35 -32 9 -46 20 -60 41 -52
15 6 17 16 11 78 -4 39 -18 112 -32 161 -14 50 -31 109 -37 133 -10 40 -12 42
-48 42 -34 0 -37 -3 -42 -32z m76 -220 c-2 -5 -11 -8 -19 -8 -11 0 -14 16 -13
73 l1 72 17 -65 c10 -36 16 -68 14 -72z"/>
<path d="M697 3868 c-32 -49 -117 -290 -117 -330 0 -37 27 -68 60 -68 51 0 74
47 130 265 16 64 17 81 7 113 -15 47 -57 57 -80 20z m43 -66 c0 -20 -29 -121
-62 -214 -15 -41 -26 -58 -38 -58 -10 0 -20 6 -23 14 -6 14 26 110 69 213 26
60 54 84 54 45z"/>
<path d="M7126 3835 c-23 -21 -37 -65 -20 -65 21 0 64 44 64 66 0 30 -10 30
-44 -1z"/>
<path d="M6896 3768 c-2 -13 -11 -77 -19 -143 -16 -126 -11 -198 17 -266 7
-19 17 -54 21 -79 9 -58 12 -62 37 -49 18 10 19 17 13 75 -5 45 -3 69 5 79 20
24 28 17 36 -31 10 -72 28 -37 32 64 4 136 2 206 -8 216 -6 6 -20 5 -36 -3
-19 -8 -24 -16 -19 -29 4 -9 14 -42 22 -72 14 -53 14 -55 -7 -72 -28 -22 -46
-23 -54 -2 -11 29 -24 196 -21 261 3 61 -10 97 -19 51z"/>
<path d="M826 3763 c-3 -3 -6 -45 -5 -92 0 -97 13 -86 24 21 7 60 -1 89 -19
71z"/>
<path d="M7086 3714 c-3 -9 -9 -68 -13 -131 l-6 -116 24 7 c13 4 49 13 79 20
48 10 55 15 58 37 5 39 -16 50 -63 34 -21 -8 -41 -13 -43 -11 -1 2 -5 19 -9
39 -5 31 -2 37 26 53 20 12 31 26 31 41 0 23 -23 32 -35 13 -9 -15 -25 -12
-25 4 0 22 -17 28 -24 10z"/>
<path d="M907 3612 c-29 -59 -57 -119 -62 -132 -6 -14 -16 -24 -23 -22 -8 1
-12 -11 -12 -35 0 -74 23 -110 36 -59 3 13 44 93 90 176 46 84 84 156 84 160
0 9 -25 20 -46 20 -9 0 -36 -44 -67 -108z"/>
<path d="M1161 3578 c-5 -18 -32 -92 -60 -165 -72 -189 -73 -180 24 -208 74
-22 81 -23 93 -8 20 27 15 33 -39 56 l-51 22 7 39 c9 60 20 68 61 49 37 -18
39 -18 48 13 5 16 -1 24 -29 37 -19 9 -35 23 -35 31 0 18 29 86 37 86 3 0 22
-12 41 -26 28 -22 36 -24 43 -13 5 8 9 19 9 25 0 11 -113 94 -129 94 -6 0 -14
-15 -20 -32z"/>
<path d="M7889 3466 c-30 -18 -108 -49 -172 -70 -116 -36 -157 -60 -157 -92 0
-27 -51 -113 -79 -131 -21 -14 -58 -18 -206 -23 -156 -4 -185 -8 -210 -24 -39
-25 -63 -55 -72 -86 -11 -42 -51 -114 -75 -137 -13 -12 -40 -29 -60 -38 -47
-19 -141 -20 -157 -1 -13 16 -5 93 13 115 17 21 34 120 22 124 -5 2 0 13 12
25 14 14 21 33 20 54 0 18 11 60 26 92 17 38 23 63 17 69 -15 15 -41 0 -41
-24 0 -25 -86 -232 -125 -301 -14 -26 -24 -52 -20 -58 4 -6 -3 -26 -15 -45
l-21 -34 21 -103 c12 -56 30 -129 40 -163 35 -117 34 -138 -4 -184 -19 -23
-38 -50 -41 -61 -4 -11 -17 -23 -31 -26 -13 -4 -31 -16 -39 -28 -15 -20 -23
-21 -148 -20 -72 1 -184 7 -247 14 -127 13 -156 9 -310 -46 -70 -25 -83 -26
-195 -21 -139 7 -919 -18 -1075 -34 -58 -5 -166 -17 -240 -26 -84 -9 -248 -16
-435 -18 -165 -1 -416 -6 -558 -10 -184 -6 -305 -4 -415 4 -136 11 -174 11
-282 -3 -85 -11 -203 -16 -370 -16 -216 0 -250 3 -285 19 -70 32 -74 42 -77
181 l-3 125 -75 6 c-127 11 -224 58 -330 159 -71 67 -120 94 -190 105 -113 16
-315 57 -372 75 -35 11 -106 45 -158 76 -52 31 -117 64 -145 74 -27 9 -90 40
-140 69 -49 28 -97 50 -105 49 -25 -5 -52 -124 -69 -308 -18 -181 -31 -301
-47 -405 -8 -55 -14 -136 -14 -180 0 -77 27 -212 48 -238 5 -7 24 -56 42 -110
36 -107 70 -154 122 -164 22 -4 27 -10 22 -22 -11 -25 -9 -49 14 -155 l22 -99
-34 -37 c-19 -21 -37 -52 -41 -69 -7 -32 -30 -51 -63 -51 -37 0 -70 -37 -82
-94 -9 -45 -8 -65 9 -127 10 -41 29 -95 40 -120 19 -42 19 -49 6 -76 -17 -35
-55 -247 -55 -306 1 -67 34 -184 84 -296 25 -57 46 -107 46 -110 0 -4 -18 -26
-40 -50 -22 -23 -40 -47 -40 -52 0 -5 267 -9 659 -9 l660 0 14 53 c9 28 18 66
22 83 3 17 17 41 30 53 28 23 29 29 15 86 -7 32 -5 53 12 107 20 61 21 76 12
190 -11 131 -4 174 25 162 36 -14 89 -24 142 -24 31 0 58 -2 60 -5 7 -6 -17
-353 -36 -520 -8 -77 -15 -150 -15 -162 l0 -23 3004 0 c1993 0 3007 3 3011 10
3 6 18 10 33 10 31 0 92 59 92 89 0 26 -26 85 -44 100 -39 32 -24 111 24 126
33 10 110 183 110 245 0 27 -4 50 -9 50 -5 0 -17 12 -26 27 -17 26 -17 28 9
74 30 54 35 129 11 194 -8 22 -14 65 -15 95 0 49 8 73 75 207 41 84 75 164 75
178 0 55 -111 226 -199 308 l-41 38 0 136 c0 125 -14 249 -51 443 -6 30 -15
123 -20 205 -5 83 -13 175 -18 205 -5 30 -10 211 -10 402 -1 191 -5 349 -9
352 -5 3 -33 -10 -63 -28z m-5945 -1538 c5 -30 4 -38 -8 -38 -23 0 -29 19 -16
51 15 35 15 35 24 -13z m4755 -436 c21 -15 59 -36 84 -47 45 -18 66 -42 50
-55 -4 -3 -39 -19 -78 -35 -38 -15 -75 -32 -81 -37 -6 -4 -14 -5 -17 -1 -8 7
-10 203 -2 203 3 0 23 -13 44 -28z m211 -1057 c0 -8 -4 -15 -10 -15 -5 0 -10
7 -10 15 0 8 5 15 10 15 6 0 10 -7 10 -15z"/>
<path d="M1457 3423 c-8 -15 -20 -46 -27 -68 -7 -22 -30 -84 -51 -138 -42
-106 -48 -142 -23 -151 22 -9 27 -4 49 54 21 55 37 69 58 51 10 -8 11 -27 4
-87 -10 -82 -4 -97 38 -92 18 3 21 14 28 88 6 68 12 89 29 103 18 15 19 21 8
47 -11 27 -14 28 -34 15 -12 -8 -31 -12 -45 -8 -20 5 -22 10 -17 37 4 17 16
50 28 75 16 33 19 50 12 70 -13 36 -40 38 -57 4z"/>
<path d="M6086 3408 c-11 -33 -24 -414 -15 -424 5 -7 18 -10 28 -7 21 5 30 53
32 172 l2 76 12 -85 c20 -135 27 -155 56 -155 22 0 26 8 49 100 36 142 40 144
34 19 -6 -110 -6 -111 17 -117 13 -3 24 -5 25 -4 7 7 24 248 24 335 l0 103
-42 -3 -43 -3 -11 -60 c-17 -90 -44 -208 -48 -212 -2 -2 -7 24 -10 59 -4 35
-13 97 -20 138 l-12 75 -37 3 c-24 2 -39 -1 -41 -10z"/>
<path d="M5064 3393 c-19 -4 -24 -19 -43 -119 -12 -63 -24 -134 -28 -159 -5
-42 -23 -74 -23 -43 0 7 -6 56 -14 108 -8 52 -17 121 -21 153 l-6 57 -36 0
c-33 0 -35 -2 -29 -25 7 -26 66 -393 66 -407 0 -5 20 -8 45 -8 25 0 45 2 45 5
0 3 13 65 29 138 27 121 55 269 56 291 0 11 -13 14 -41 9z"/>
<path d="M5264 3393 c-7 -5 -13 -86 -17 -226 l-7 -218 93 3 92 3 3 28 c3 27 3
27 -58 27 l-61 0 3 63 3 62 40 5 c37 5 40 8 43 38 3 31 2 32 -37 32 -22 0 -42
3 -44 8 -3 4 -2 30 0 59 l5 52 57 3 c55 3 56 4 56 33 l0 30 -80 3 c-44 1 -85
-1 -91 -5z"/>
<path d="M4551 3367 c-54 -28 -60 -49 -63 -230 -3 -167 -3 -169 21 -188 29
-23 97 -25 129 -3 43 30 50 61 52 220 2 82 0 156 -4 165 -9 21 -59 49 -88 49
-12 0 -34 -6 -47 -13z m63 -60 c16 -11 17 -28 14 -151 -3 -123 -5 -139 -22
-152 -25 -18 -31 -18 -49 1 -21 20 -12 272 11 298 18 20 23 21 46 4z"/>
<path d="M5605 3368 c-2 -7 -6 -107 -10 -221 l-6 -208 28 3 c26 3 28 7 31 48
5 91 11 110 36 110 21 0 24 -7 37 -82 13 -75 16 -83 38 -86 13 -2 27 0 32 5 5
5 1 46 -8 95 -14 73 -15 93 -4 126 17 49 11 183 -8 206 -17 20 -159 24 -166 4z
m116 -58 c15 -9 19 -22 19 -63 0 -60 -12 -77 -52 -77 -28 0 -28 0 -28 68 0 85
11 98 61 72z"/>
<path d="M3724 3093 c4 -125 9 -229 11 -231 2 -2 34 0 71 4 56 5 73 12 96 35
l28 27 0 157 c0 95 -4 165 -11 178 -23 45 -50 57 -128 57 l-74 0 7 -227z m141
125 c3 -18 4 -84 3 -146 -3 -117 -9 -131 -50 -132 -15 0 -18 10 -19 68 0 37
-2 106 -5 155 l-4 87 35 0 c31 0 35 -3 40 -32z"/>
<path d="M3415 3290 l-40 -5 -12 -105 c-6 -58 -19 -154 -27 -215 -22 -152 -22
-147 16 -143 30 3 33 7 43 52 8 41 15 51 39 59 34 11 46 -2 46 -49 0 -40 20
-57 55 -48 25 6 26 9 20 48 -21 134 -78 393 -88 401 -7 6 -30 9 -52 5z m30
-212 c6 -58 4 -68 -9 -68 -12 0 -16 10 -16 39 0 38 10 105 15 99 1 -2 6 -33
10 -70z"/>
<path d="M1807 3253 c-2 -5 0 -21 4 -38 7 -29 7 -29 8 8 1 35 -3 46 -12 30z"/>
<path d="M3030 3253 c-25 -2 -56 -6 -69 -9 l-24 -5 7 -122 c3 -67 9 -168 12
-224 l6 -103 69 0 c92 0 121 12 117 48 -3 27 -4 27 -65 24 l-63 -4 0 60 0 60
45 6 c44 7 45 8 45 42 l0 36 -42 -4 -43 -3 -6 55 c-3 30 -4 57 -2 60 3 3 30 7
61 10 l57 5 0 35 c0 39 -7 41 -105 33z"/>
<path d="M2733 3218 c-5 -8 -7 -45 -3 -93 4 -44 4 -83 1 -86 -3 -4 -20 -10
-37 -13 -29 -7 -32 -5 -38 25 -3 17 -6 60 -6 95 l0 64 -29 0 c-17 0 -32 -4
-35 -9 -3 -4 1 -80 9 -167 8 -87 15 -183 15 -211 0 -50 2 -53 25 -53 24 0 24
2 27 93 l3 92 35 0 35 0 5 -90 c4 -73 8 -90 22 -93 22 -4 30 90 26 298 -3 148
-4 155 -24 158 -11 2 -25 -3 -31 -10z"/>
<path d="M1713 3193 c-22 -8 -14 -58 21 -124 18 -35 53 -108 76 -161 23 -53
50 -104 60 -113 17 -15 17 -13 9 32 -5 26 -13 62 -19 78 -5 17 -14 61 -21 98
-6 38 -19 76 -29 85 -9 9 -31 38 -49 65 -18 26 -33 47 -34 46 -1 0 -8 -3 -14
-6z"/>
<path d="M2130 3124 c-6 -14 -10 -35 -10 -47 -1 -12 -7 -35 -14 -52 -12 -27
-14 -28 -21 -10 -30 81 -47 105 -75 105 -16 0 -31 -4 -34 -9 -4 -5 17 -56 44
-113 45 -93 51 -112 57 -191 6 -88 6 -88 32 -85 26 3 26 4 29 93 2 59 13 128
33 201 16 61 29 116 29 122 0 7 -14 12 -30 12 -24 0 -33 -6 -40 -26z"/>
<path d="M20 1670 c-22 -5 -23 -7 -7 -13 10 -4 26 -3 34 2 21 11 4 19 -27 11z"/>
<path d="M9780 1031 c0 -77 8 -98 39 -109 14 -6 35 -14 46 -18 17 -7 18 -6 7
8 -7 8 -10 23 -6 32 3 9 1 16 -5 16 -6 0 -11 6 -11 13 0 8 -7 28 -16 46 -9 18
-14 40 -11 50 3 14 -1 19 -19 19 -22 0 -24 -4 -24 -57z"/>
</g>
</svg>
